<?xml version="1.0" encoding="utf-8"?>
<!-- Generator: Adobe Illustrator 23.0.5, SVG Export Plug-In . SVG Version: 6.00 Build 0)  -->
<svg version="1.1" id="Capa_1" xmlns="http://www.w3.org/2000/svg" xmlns:xlink="http://www.w3.org/1999/xlink" x="0px" y="0px"
	 viewBox="0 0 410.4 222.9" style="enable-background:new 0 0 410.4 222.9;" xml:space="preserve">
<style type="text/css">
	.st0{fill:#BF0811;}
</style>
<g>
	<g>
		<path d="M384.2,100.4c-2.2,18.5-14.3,33.6-30.3,38.6c-1.2-0.4-2.3-0.8-3.4-1.3c10.2-9.1,17.1-22.3,18.6-37.4h-8.6
			c-1.6,13.5-8.6,25.3-18.4,32.6c-9.9-7.3-16.8-19-18.4-32.6h-8.6c1.5,15,8.4,28.3,18.6,37.4c-1.1,0.5-2.2,0.9-3.4,1.3
			c-16-5.1-28.1-20.2-30.3-38.6h-8.7c1.7,16.7,10,31.1,22,40.2c5.1,3.8,10.8,6.6,16.9,8.2c3.8,1,7.8,1.6,11.9,1.6
			c4.1,0,8.1-0.6,11.9-1.6c6.1-1.6,11.9-4.4,16.9-8.2c12-9,20.4-23.5,22-40.2H384.2z"/>
		<polygon points="224.8,145 277.9,145 277.9,133.8 235.2,133.8 235.2,100.4 224.8,100.4 		"/>
		<g>
			<path d="M370.8,48.1c-5.1-3.8-10.8-6.6-16.9-8.2c-3.8-1-7.8-1.6-11.9-1.6s-8.1,0.6-11.9,1.6c-6.1,1.6-11.9,4.4-16.9,8.2
				c-12,9-20.4,23.5-22,40.2h8.7c2.2-18.5,14.3-33.6,30.3-38.6c1.2,0.4,2.3,0.8,3.4,1.3c-10.2,9.1-17.1,22.3-18.6,37.4h8.6
				c1.6-13.5,8.6-25.3,18.4-32.6c9.9,7.3,16.8,19,18.4,32.6h8.6c-1.5-15-8.4-28.3-18.6-37.4c1.1-0.5,2.2-0.9,3.4-1.3
				c16,5.1,28.1,20.2,30.3,38.6h8.7C391.2,71.6,382.9,57.2,370.8,48.1z"/>
			<polygon points="224.8,88.3 235.2,88.3 235.2,55 278.3,55 278.3,43.8 224.8,43.8 			"/>
			<path d="M160.5,137.9c-21.9,0-39.7-19.5-39.7-43.5s17.8-43.5,39.7-43.5c11.8,0,22.9,5.7,30.4,15.5l8.5-7.8
				c-9.7-12.6-23.9-19.9-38.9-19.9c-28,0-50.8,24.9-50.8,55.6s22.8,55.6,50.8,55.6c26.1,0,47.7-21.7,50.5-49.5h-11.2
				C197.1,121.6,180.5,137.9,160.5,137.9z"/>
		</g>
		<path class="st0" d="M392.8,88.3h-8.7h-15.1h-8.6h-36.9h-8.6h-15.1h-8.7h-56h-10.4h-57v12.1h32H211h13.8h10.4h56h8.7h15.1h8.6
			h36.9h8.6h15.1h8.7c0.2-2,0.3-4,0.3-6.1C393.2,92.3,393,90.3,392.8,88.3z"/>
	</g>
	<g>
		<g>
			<path class="st0" d="M51.9,139.6c0,0,0,0.1,0.1,0.2C52,139.8,52,139.7,51.9,139.6z"/>
			<polygon class="st0" points="77.7,39.3 77.7,39.1 77.7,39.2 			"/>
			<path class="st0" d="M51.8,140c0-0.1,0.1-0.3,0.2-0.4C51.9,139.6,51.9,139.8,51.8,140z"/>
			<path class="st0" d="M27.1,141.3L27.1,141.3C27.2,141.3,27.2,141.3,27.1,141.3L27.1,141.3z"/>
			<path class="st0" d="M104.3,63.5l0.1-0.1L104.3,63.5z"/>
			<path class="st0" d="M104.3,71c0.3-1.3,1.5-2.2,1.8-3.3c0.5-1.5,0.1-3.1-0.9-4.1c0,0,0-0.1,0-0.2c-0.2,0.2-0.6,0-0.9,0.1
				l-0.1,0.1c0,0-0.1,0.1,0,0.3c0,0.3,0.3,0.9,0.2,1.3c2.2,1.8-0.5,3.8-0.6,5.8c-0.2,3.2,1.9,2.9,2.7,2.2
				C105.2,73.5,103.9,72.9,104.3,71z"/>
			<path class="st0" d="M95.3,73.3c0.5-0.1,4.7-0.8,3.8-1.9c-0.3-0.4-1-0.2-1.4-0.1c-1.2,0.3-2.4,0-3.6-0.2
				c-0.1,0.7-0.2,1.5-0.3,2.2C94.3,73.3,94.8,73.3,95.3,73.3z"/>
			<path class="st0" d="M23.1,164.5c-0.5-0.6-1-1.2-1.4-1.7c0.2,0.3,0.4,0.6,0.6,0.9L23.1,164.5z"/>
			<path class="st0" d="M52.3,140.2C52.3,140.3,52.3,140.3,52.3,140.2L52.3,140.2z"/>
			<path class="st0" d="M103.9,64.7c-0.1-0.1,0.1-0.8,0.4-1.2l0.1-0.1c0.1-0.1,0.2-0.2,0.4-0.2c0.3,0,0.4,0.1,0.5,0.1l0.1-0.1
				c-0.4-2.9-2.6-4.7-5.2-3.3c-2.9-3.1-8.9-3.3-8.8-9.2c0.8-0.5,2.4,0,3-0.1c-0.6-3.1-2.2-6.3-6-5.7c1.5-6.6-7.7-3.2-9.1-7.1
				c-0.7,0.1-1,0.7-1.5,1.1l0,0.1l0-0.1l0,0l0-0.2c0.1-4.5,3.9-5.3,5.8-2.1c-0.4-2.7-5.9-3.4-7-1.1c-1.4-3.3,1.7-1.9-0.4-4.9
				c-2.7-3.6-7.1-5.6-11.2-6.6c3,1.4,6,3.5,6.5,8.5c-1.7-1.5-2.9-1.2-2.9-1.2s1.2,0.9,0.2,2.5c-0.2,0.4-3.5-0.2-3.2,0.2
				c-2.5-0.8-4-4.6-6.2-5.8c-4-2.5-11.7-4.3-15.7-1.4c4.5,1.5,8.5,3.9,11.3,8.9c-1.8,0.2-5.8,0.7-6.1,3.3c1.2-0.3,3.1-0.5,3.9,0.7
				c-4.6,3.2-9.1,7.2-9.8,14c2-1.6,3.2-4.9,5.4-6.7c1.6-1.4,4.4-1.5,6.3-1.6c-4.8,2.4-8.2,4.7-9.3,8.6c-0.6,1.9-0.2,4-1.9,5.4
				c-0.8,0.8-1.7-0.4-1.9,0.1c-0.6,1.4,1.1,2,2.1,2.6C45,60,47.1,56,47.8,51.3c1.1,3.5-0.6,10.1-3.6,12.1c-0.3,1-1.1,2.8-1.1,3.7
				c0,6.2,8.2,16.8,1.5,19.8c2.5,1.8,5.3-1.4,6.7-3.3c2.3,2.6,3.3,5.1,6.1,6.3V90c0.9,1,1.6,7.1,11.1,9.2c-1.7-1.2-2.9-2.9-3.4-5
				l0.2-0.2c4.8,2.9,7.6,4.7,8.5,5.6c3,3.1,4.4,7.2,4.4,12.2c-0.4,3.9-2.3,7-5.6,9.5c2.6,0.6,8.3-3.7,8.3-3.7s-1,1.3-2.3,2.8
				c-3.9,3.4-5,5.5-11.5,3.3c2.1,1.9,3.3,2,4.1,2.4c-0.4,0.4-4.5,3-6.8,2.3c-4.3-1.3-6.6-2.9-7.8-7.8c-0.4-0.9-0.1-2.8,0.8-5.7
				c1.1-2.9,2.9-4.8,5.2-5.5c-4.1-0.3-7.8,1.8-11.2,6.2c-1.7-1.6-3.7-3-6.1-4.2c1.2-0.5,3-2,6.6-2.5c-1.6-0.5-4.8-1-7.3-0.9
				c-3.3,0.2-5.2,0.3-5.9,0.3c0.5,0,2.3-5,9-5.6c-1.3,0.1-3.1-1.1-4.5-1.2c-1.2-0.1-2.4,0-3.6,0.3c-4.5,1-8.8,3.7-12.3,6.8
				C14.9,119.2,8.2,139,9.2,155.8c0.1,1.1,0.8,5.7,0.6,1.7c-0.2-7.8,2.4-13.7,5.1-19.6c-1.3,17.3,1.6,18.6,6.8,24.8
				c-5-7.7-6.8-12.5-4.1-28.8c1,7.1,3.7,15.6,8.4,19.2c-3.8-6.2-9.7-21.1-3.5-27.3c-1.6,8.5,2.6,15.1,7.1,18.5
				c-0.9-0.9-1.6-1.9-2.3-3l-0.1-0.1l0,0c-5.2-8-5.1-19.5,5.1-24.1c11.2-5.1,11.8,15.5,8.8,19c-0.5-0.1-4.5-1-5.7-2.8
				c-0.3,2.8,4.8,7.8,5.7,7.4c0,0-3.8,2.5-6.6,2.3c-1.3,0-3.8-0.6-7.3-1.7c0,0,0,0.1,0,0.1c2.7,2.8,6.5,4.4,11.4,4.8
				c5.4,0.5,9.8,0.4,13.2-6.1c0.1-0.3,0.2-0.4,0.2-0.4c0,0.1,0.1,0.1,0.1,0.1c0.1,0.1,0.1,0.1,0.1,0.2l0,0.1l0.1,0.1l0,0.1
				c0,0.1,0,0.1,0,0l0-0.1l-0.1-0.1l0-0.1c0-0.1,0-0.1-0.1-0.1c0-0.1-0.1-0.2-0.1-0.2c0,0.1-0.1,0.2-0.2,0.4
				c-0.9,1.8-5.1,10.2-8.5,20.1c12.7-17.2,18-10.4,25.3-13.3l0.1,0.2c-0.8,1.2-2.5,2.6-5.2,4.2c3.4-0.2,7.1-1.7,15-7.2
				c0.2,4.6,3.4,7.7,5,10.6c0.5-7,5.6-19.1,8.6-23.5l0.2,0.7c0,0.1-0.4,3.6-1.2,10.5c3.8-7.4,7.2-10.8,8.2-15.4
				c0.5-2.5,2-10.5,2-12.9c0.5-9.7-1.7-19.2-11-27.2c-3.8-1.5-6.8-4.9-8.2-7.3c1.3,0.4,2.4,0.2,5.6-3c-3.8,0.6-4.8,0.3-8.3-0.5
				c-1.9-0.4-3.7-1.1-5.8-2.6c-2.4-1.6-3-5-4.2-7.8c-0.6-1.4-1.3-2.9-1.4-4.4c0-0.1,0-0.4,0-0.5c0,0,0.3,1.7,3.6,1.9
				c2,0.1,3.4-2.2,5.2-2.4c2.7-0.3,5.3,2.3,6.8,3.7c2.6,2.5,3.4,7,6.8,8.6c0.8,0.4,1.7,0.7,2.6,0.8c0.1,0.5,0,0.9,0,1.4
				c-0.3,2.7-2.1,2.7-3.6,1.6c0.6,1.2,3.2,2.9,4.4-1.4c0.1-0.5,0.2-1,0.3-1.6h-0.1l0-2.4c0.2,0,0.4,0.1,0.5,0.1
				c0.2-1.1,0.5-2.2,1.1-3.3c0.8,0.6,0.7,0.7,1.6,1.2c0.8,0.4,1.6,0.8,2.4,1c1.1,0.3,2.3,1.2,3.1-0.2c0.9-1.4,0.9-3.3,2-4.5
				c0,0,0.1-0.1,0.1-0.1c-0.1-0.1-0.1-0.1-0.2-0.1C104.2,65,104,64.8,103.9,64.7z M49.9,54.1c-0.7,3.8-0.6,7.9-1,10.8
				c-2.6-9.3,2.5-17.7,6.7-17.4C54.4,50.6,50.5,51.4,49.9,54.1z M58.5,49.7c-4.8,4.5-7,10.5-6.5,16.6C52,66.2,47.1,57.1,58.5,49.7z
				 M59,73.3c-1.8-4.7-3.1-7.7-3.3-10.6c0-0.4-1,2.6-2.4,6C53,63.2,57.5,53.1,61,52.6C57.6,56.7,55.2,59.6,59,73.3z M62.3,57.9
				c-1.5,8,0.8,15.7,6.2,21.6C68.5,79.4,56.2,73.4,62.3,57.9z M82.1,81c-4.5-0.2-7.6-0.1-9.9-1.3c-0.3-0.2,1.7,2.7,3.9,6.4
				c-4.5-2.7-10.9-14-9.9-18.9C68.1,73.9,69.5,78.7,82.1,81z M83.9,49.3c-0.4-0.1-0.8-0.3-1-0.7c-1.3-0.6-2.5-1.3-4-1.5
				c1-3.5,3.2-2.8,5.1-1.2c0.1,0,0.1,0,0.2,0c0.7,0.1,1.1,0.6,1.2,1.4c0.8,0.8,1.4,1.6,1.8,2.1c-1,0.1-1.9,0.1-2.8-0.1
				C84.3,49.3,84.1,49.3,83.9,49.3z M91.8,70.3c-0.7-0.2-0.6-0.3-1.3-0.8c-0.8-0.7-1.3-1.2-1.9-2.2c-2.8-4.5-3.1-4.2-3.2-6.5
				c0-0.6,1.3,0.1,1.8,0.4c1,0.6,1.9,1.5,2.8,2.2c1,0.9,1.6,1.4,2.6,2.2c-0.7,0.8-0.8,2.3-0.8,3.5C91.7,69.9,91.8,69.4,91.8,70.3z
				 M98.3,64.9c-0.9-0.5-1.4-1.7-1.5-2.7c0,1,2.2,0.4,2.7,0.8C100.5,63.8,99.2,65.3,98.3,64.9z M102.3,63.7c0.1-0.7,0.3-0.6,0.7-0.8
				c0.2-0.1,1-0.8,0.9-1.1c0.3,0.8,0.3,1.7-0.5,2.8C102.9,64.6,102.3,64.5,102.3,63.7z"/>
			<path class="st0" d="M104.8,63.2c-0.2,0-0.3,0.1-0.4,0.2c0.2-0.1,0.6,0.1,0.9-0.1C105.2,63.3,105.1,63.2,104.8,63.2z"/>
			<path class="st0" d="M104.2,63.8c0-0.2,0-0.2,0-0.2c-0.3,0.4-0.5,1.1-0.4,1.1c0.1,0.1,0.3,0.2,0.3,0.2c0.1,0.1,0.1,0.1,0.2,0.1
				C104.5,64.8,104.3,64.2,104.2,63.8z"/>
			<path class="st0" d="M93.7,73.3l0.1,0c0.2-0.7,0.2-1.5,0.4-2.2C94,71,93.8,71,93.6,71L93.7,73.3z"/>
			<path class="st0" d="M82.9,48.6c0.2,0.4,0.6,0.6,1,0.7c0.2,0,0.4,0,0.6-0.1C84,49.1,83.4,48.9,82.9,48.6z"/>
			<path class="st0" d="M84.3,45.9c-0.1,0-0.2,0-0.2,0c0.5,0.4,1,0.9,1.5,1.4C85.4,46.6,84.9,46,84.3,45.9z"/>
			<path class="st0" d="M85.5,47.8c0-0.2,0-0.3,0-0.5c-0.4-0.5-0.9-1-1.5-1.4c-0.7,0-1.3,0.6-1.4,1.5c0,0.4,0.1,0.9,0.3,1.2
				c0.5,0.2,1,0.4,1.6,0.6C85,49,85.4,48.5,85.5,47.8z"/>
			<path class="st0" d="M42.5,64c0.6,0,1.1-0.2,1.7-0.6c0.1-0.3,0.1-0.6,0.1-0.6c-0.1-0.2-0.3-0.3-0.6-0.5"/>
		</g>
		<path class="st0" d="M82,46.3c-0.4,0.8,0.1,2.1,1.3,2.7c1.1,0.7,2.5,0.4,2.8-0.2c0.4-0.7-0.1-2-1.3-2.7
			C83.6,45.4,82.4,45.5,82,46.3z"/>
	</g>
</g>
</svg>
